<svg xmlns="http://www.w3.org/2000/svg" viewBox="0 0 99.55 66.61">
  <g id="c">
    <g>
      <g>
        <polygon class="cls-2" fill="#8cc" points="15.73 0 0 66.61 20.32 66.61 36.06 0 15.73 0"></polygon>
        <polygon class="cls-2" fill="#8cc" points="39.61 0 23.88 66.61 44.2 66.61 59.94 0 39.61 0"></polygon>
        <polygon class="cls-2" fill="#8cc" points="63.5 0 47.76 66.61 68.08 66.61 83.82 0 63.5 0"></polygon>
      </g>
      <g>
        <polygon class="cls-1" fill="#cbe7e7" points="63.5 0 79.23 66.61 99.55 66.61 83.82 0 63.5 0"></polygon>
        <polygon class="cls-1" fill="#cbe7e7" points="39.61 0 55.35 66.61 75.67 66.61 59.94 0 39.61 0"></polygon>
        <polygon class="cls-1" fill="#cbe7e7" points="15.73 0 31.47 66.61 51.79 66.61 36.06 0 15.73 0"></polygon>
      </g>
    </g>
  </g>
</svg>